<?xml version="1.0" encoding="utf-8"?>
<!-- Generator: Adobe Illustrator 18.0.0, SVG Export Plug-In . SVG Version: 6.00 Build 0)  -->
<!DOCTYPE svg PUBLIC "-//W3C//DTD SVG 1.1//EN" "http://www.w3.org/Graphics/SVG/1.1/DTD/svg11.dtd">
<svg version="1.1" id="Layer_1" xmlns="http://www.w3.org/2000/svg" xmlns:xlink="http://www.w3.org/1999/xlink" x="0px" y="0px"
	 viewBox="0 0 48 48" enable-background="new 0 0 48 48" xml:space="preserve">
<path fill="#FFFFFF" d="M40.4,8.7c0-0.4-0.2-0.5-0.5-0.3l-4.5,3.2c-1.3-1-4-2.4-6.5-3.1l0-3l-5.5,2.7c-4.9,0.8-8.6,3.7-8.6,4.3
	c0,0.6,4.9,4.5,10.9,4.5c1,0,1.9-0.1,2.8-0.3l2.9,1.6l0-2.6c1.3-0.7,3.1-1.6,4-2.2l4.5,3.2c0.3,0.2,0.5,0.1,0.5-0.3
	c0,0-1.4-2.3-1.4-3.8C39,11.1,40.4,8.7,40.4,8.7 M20.5,12.5c-0.7,0-1.3-0.6-1.3-1.3c0-0.7,0.6-1.3,1.3-1.3s1.3,0.6,1.3,1.3
	C21.8,12,21.2,12.5,20.5,12.5"/>
<path fill="#FFFFFF" d="M23.8,18.5c0-0.3-0.2-0.4-0.5-0.2l-4.1,2.9c-1.2-0.9-3.6-2.2-6-2.9l0-2.7l-5,2.5c-4.5,0.7-7.9,3.4-7.9,3.9
	c0,0.6,4.5,4.1,10,4.1c0.9,0,1.8-0.1,2.6-0.3l2.6,1.5l0-2.3c1.2-0.7,2.8-1.4,3.6-2l4.1,2.9c0.3,0.2,0.5,0.1,0.5-0.2
	c0,0-1.2-2.1-1.2-3.5C22.5,20.7,23.8,18.5,23.8,18.5 M5.6,22c-0.7,0-1.2-0.5-1.2-1.2c0-0.7,0.5-1.2,1.2-1.2s1.2,0.5,1.2,1.2
	C6.8,21.5,6.2,22,5.6,22"/>
<path fill="#FFFFFF" d="M47.7,24.1c0-0.3-0.2-0.4-0.4-0.2l-3.6,2.5c-1.1-0.8-3.2-2-5.2-2.5l0-2.4l-4.4,2.2c-4,0.6-6.9,3-6.9,3.4
	c0,0.5,3.9,3.6,8.8,3.6c0.8,0,1.5-0.1,2.3-0.3l2.3,1.3l0-2c1-0.6,2.5-1.3,3.2-1.8l3.6,2.5c0.2,0.2,0.4,0.1,0.4-0.2
	c0,0-1.1-1.8-1.1-3C46.6,26,47.7,24.1,47.7,24.1 M31.8,27.2c-0.6,0-1-0.5-1-1c0-0.6,0.5-1,1-1c0.6,0,1,0.5,1,1
	C32.8,26.7,32.4,27.2,31.8,27.2"/>
<path fill="#FFFFFF" d="M30.5,31.5c0-0.3-0.2-0.4-0.4-0.2l-3.7,2.6c-1.1-0.8-3.3-2-5.4-2.6l0-2.5l-4.5,2.3c-4.1,0.6-7.1,3.1-7.1,3.5
	c0,0.5,4,3.7,9,3.7c0.8,0,1.6-0.1,2.3-0.3l2.4,1.3l0-2.1c1.1-0.6,2.5-1.3,3.3-1.8l3.7,2.6c0.2,0.2,0.4,0.1,0.4-0.2
	c0,0-1.1-1.9-1.1-3.1C29.4,33.5,30.5,31.5,30.5,31.5 M14.1,34.6c-0.6,0-1.1-0.5-1.1-1.1c0-0.6,0.5-1.1,1.1-1.1
	c0.6,0,1.1,0.5,1.1,1.1C15.2,34.2,14.7,34.6,14.1,34.6"/>
</svg>
